<svg width="162" height="34" viewBox="0 0 162 34" fill="none" xmlns="http://www.w3.org/2000/svg">
<path d="M11.136 33C10.752 33 10.512 32.84 10.416 32.52L0.48 2.232C0.352 1.784 0.528 1.56 1.008 1.56H7.104C7.488 1.56 7.728 1.72 7.824 2.04L13.056 20.088C13.376 21.24 13.68 22.408 13.968 23.592C14.256 24.744 14.528 25.912 14.784 27.096H14.928C15.184 25.912 15.456 24.744 15.744 23.592C16.064 22.408 16.4 21.224 16.752 20.04L22.032 2.088C22.128 1.736 22.352 1.56 22.704 1.56H28.8C29.28 1.56 29.456 1.784 29.328 2.232L19.296 32.52C19.168 32.84 18.928 33 18.576 33H11.136ZM44.7596 33.576C40.4396 33.576 37.1596 32.536 34.9196 30.456C32.7116 28.376 31.6076 25.352 31.6076 21.384V13.176C31.6076 9.176 32.7116 6.152 34.9196 4.104C37.1596 2.024 40.4396 0.983997 44.7596 0.983997C49.1116 0.983997 52.3916 2.024 54.5996 4.104C56.8396 6.152 57.9596 9.176 57.9596 13.176V21.384C57.9596 25.352 56.8396 28.376 54.5996 30.456C52.3916 32.536 49.1116 33.576 44.7596 33.576ZM44.7596 27.624C46.9036 27.624 48.4876 27.064 49.5116 25.944C50.5676 24.792 51.0956 23.144 51.0956 21V13.56C51.0956 11.416 50.5676 9.784 49.5116 8.664C48.4876 7.512 46.9036 6.936 44.7596 6.936C42.6796 6.936 41.1116 7.512 40.0556 8.664C38.9996 9.784 38.4716 11.416 38.4716 13.56V21C38.4716 23.144 38.9996 24.792 40.0556 25.944C41.1116 27.064 42.6796 27.624 44.7596 27.624ZM75.2025 33.576C72.8345 33.576 70.7385 33.128 68.9145 32.232C67.1225 31.304 65.7145 29.944 64.6905 28.152C63.6665 26.328 63.1545 24.072 63.1545 21.384V13.176C63.1545 9.144 64.3225 6.104 66.6585 4.056C68.9945 2.008 72.2105 0.983997 76.3065 0.983997C79.2825 0.983997 81.7625 1.448 83.7465 2.376C85.7625 3.304 87.2185 4.568 88.1145 6.168C89.0425 7.768 89.3785 9.592 89.1225 11.64C89.0585 12.024 88.8345 12.216 88.4505 12.216H82.8345C82.4505 12.216 82.2745 11.992 82.3065 11.544C82.3385 10.584 82.1465 9.768 81.7305 9.096C81.3465 8.392 80.7065 7.848 79.8105 7.464C78.9465 7.08 77.8265 6.888 76.4505 6.888C74.3385 6.888 72.7385 7.416 71.6505 8.472C70.5625 9.528 70.0185 11.192 70.0185 13.464V21.096C70.0185 23.368 70.5625 25.032 71.6505 26.088C72.7385 27.144 74.3545 27.672 76.4985 27.672C78.5145 27.672 80.0345 27.224 81.0585 26.328C82.1145 25.432 82.6425 24.152 82.6425 22.488V21.144H76.7865C76.3705 21.144 76.1625 20.936 76.1625 20.52V16.92C76.1625 16.504 76.3705 16.296 76.7865 16.296H88.5945C88.9785 16.296 89.1705 16.504 89.1705 16.92V25.368C89.1705 26.488 89.1865 27.672 89.2185 28.92C89.2825 30.168 89.4105 31.304 89.6025 32.328C89.6665 32.52 89.6345 32.68 89.5065 32.808C89.3785 32.936 89.2185 33 89.0265 33H84.5145C84.3545 33 84.2265 32.952 84.1305 32.856C84.0345 32.76 83.9545 32.632 83.8905 32.472C83.8265 32.088 83.7625 31.624 83.6985 31.08C83.6665 30.504 83.6345 29.976 83.6025 29.496H83.5065C82.9945 30.296 82.3545 31.016 81.5865 31.656C80.8505 32.264 79.9545 32.728 78.8985 33.048C77.8425 33.4 76.6105 33.576 75.2025 33.576ZM108.182 33.576C103.99 33.576 100.806 32.584 98.6295 30.6C96.4535 28.584 95.3655 25.528 95.3655 21.432V2.184C95.3655 1.768 95.5735 1.56 95.9895 1.56H101.606C102.022 1.56 102.23 1.768 102.23 2.184V21.192C102.23 23.24 102.71 24.84 103.67 25.992C104.63 27.112 106.134 27.672 108.182 27.672C110.262 27.672 111.766 27.112 112.694 25.992C113.654 24.84 114.134 23.24 114.134 21.192V2.184C114.134 1.768 114.342 1.56 114.758 1.56H120.374C120.79 1.56 120.998 1.768 120.998 2.184V21.48C120.998 25.48 119.894 28.504 117.686 30.552C115.51 32.568 112.342 33.576 108.182 33.576ZM127.73 33C127.314 33 127.105 32.792 127.105 32.376V2.184C127.105 1.768 127.314 1.56 127.73 1.56H146.882C147.298 1.56 147.506 1.768 147.506 2.184V6.936C147.506 7.32 147.298 7.512 146.882 7.512H133.97V14.328H145.73C146.146 14.328 146.354 14.536 146.354 14.952V19.368C146.354 19.752 146.146 19.944 145.73 19.944H133.97V27.048H146.882C147.298 27.048 147.506 27.24 147.506 27.624V32.376C147.506 32.792 147.298 33 146.882 33H127.73ZM156.863 33.576C155.487 33.576 154.415 33.224 153.647 32.52C152.911 31.816 152.543 30.888 152.543 29.736V28.68C152.543 27.464 152.911 26.52 153.647 25.848C154.415 25.176 155.487 24.84 156.863 24.84C158.303 24.84 159.375 25.176 160.079 25.848C160.815 26.52 161.183 27.464 161.183 28.68V29.736C161.183 30.888 160.815 31.816 160.079 32.52C159.375 33.224 158.303 33.576 156.863 33.576Z" fill="black"/>
</svg>
